<?xml version="1.0" standalone="no"?>
<!DOCTYPE svg PUBLIC "-//W3C//DTD SVG 20010904//EN"
 "http://www.w3.org/TR/2001/REC-SVG-20010904/DTD/svg10.dtd">
<svg version="1.0" xmlns="http://www.w3.org/2000/svg"
 width="225.000000pt" height="225.000000pt" viewBox="0 0 225.000000 225.000000"
 preserveAspectRatio="xMidYMid meet">

<g transform="translate(0.000000,225.000000) scale(0.100000,-0.100000)"
fill="#000000" stroke="none">
<path d="M790 2211 c-369 -120 -644 -402 -757 -776 -26 -86 -27 -99 -27 -310
0 -211 1 -224 27 -310 61 -199 174 -384 317 -519 70 -66 193 -152 275 -194 41
-21 189 -74 238 -86 l27 -6 0 780 c0 773 0 780 -20 780 -20 0 -20 -7 -20 -557
0 -522 -2 -561 -19 -599 -29 -63 -84 -90 -173 -86 -38 3 -105 65 -118 110 -6
23 -10 274 -10 677 0 603 2 642 19 681 10 23 34 52 52 65 31 22 46 24 162 27
l127 4 0 174 c0 96 -3 174 -7 174 -5 -1 -46 -13 -93 -29z"/>
</g>
</svg>
